
<svg width="52px" height="52px" viewBox="103 -1 52 52" version="1.1" xmlns="http://www.w3.org/2000/svg" xmlns:xlink="http://www.w3.org/1999/xlink">
    <!-- Generator: Sketch 42 (36781) - http://www.bohemiancoding.com/sketch -->
    <desc>Created with Sketch.</desc>
    <defs>
        <rect id="path-1" x="0" y="0" width="52" height="52"></rect>
    </defs>
    <g id="logo" stroke="none" stroke-width="1" fill="none" fill-rule="evenodd" transform="translate(103.000000, -1.000000)">
        <mask id="mask-2" fill="white">
            <use xlink:href="#path-1"></use>
        </mask>
        <g id="Mask" opacity="0.537420743"></g>
        <g id="Group" mask="url(#mask-2)">
            <g transform="translate(26.000000, 26.500000) rotate(180.000000) translate(-26.000000, -26.500000) translate(0.000000, 1.000000)">
                <circle id="Oval-3" fill="none" cx="26" cy="26" r="25"></circle>
                <path d="M26.58,48.63 L27.115,50.44 L27.125,50.44 L27.69,48.63 L28.185,48.63 L28.76,50.44 L28.77,50.44 L29.305,48.63 L29.8,48.63 L29.015,51 L28.525,51 L27.94,49.22 L27.93,49.22 L27.35,51 L26.86,51 L26.07,48.63 L26.58,48.63 Z M33.6090171,48.4552335 C33.5840024,48.3652526 33.548194,48.2838613 33.5015906,48.2110573 C33.4549873,48.1382533 33.3979465,48.0790951 33.3304666,48.033581 C33.2629868,47.9880669 33.1854586,47.9578188 33.0978799,47.942836 C33.0103011,47.9278532 32.9130305,47.9331924 32.806065,47.9588538 C32.7088236,47.9821823 32.6213385,48.0211667 32.543607,48.075808 C32.4658754,48.1304493 32.4024058,48.1945232 32.353196,48.2680316 C32.3039862,48.3415399 32.2686491,48.4228599 32.2471835,48.5119939 C32.2257179,48.6011279 32.2226304,48.6918504 32.237921,48.7841642 L33.6090171,48.4552335 Z M34.1152352,48.5291812 L34.1338979,48.6069739 C34.1401189,48.6329049 34.1447191,48.6592244 34.1476986,48.685933 L32.3195704,49.1245073 C32.3461404,49.220971 32.3899867,49.3072897 32.4511108,49.383466 C32.5122349,49.4596423 32.5844121,49.521168 32.6676446,49.5680449 C32.7508771,49.6149218 32.8413378,49.6454951 32.9390295,49.6597658 C33.0367212,49.6740364 33.135807,49.6691188 33.2362897,49.6450126 C33.3918758,49.607687 33.5182261,49.5413824 33.6153444,49.4460968 C33.7124627,49.3508112 33.7817703,49.2467732 33.8232693,49.1339794 L34.2059845,49.3146839 C34.121693,49.5063023 34.0052205,49.6602191 33.8565635,49.7764388 C33.7079066,49.8926585 33.5314773,49.9752621 33.3272705,50.024252 C33.1522361,50.0662433 32.9831711,50.0759517 32.8200706,50.0533773 C32.6569701,50.0308029 32.509303,49.9796748 32.377065,49.8999914 C32.2448269,49.820308 32.1300313,49.7133035 32.0326747,49.5789749 C31.9353181,49.4446462 31.8648675,49.2867257 31.821321,49.1052085 C31.778552,48.9269327 31.7690708,48.7552424 31.792877,48.5901323 C31.8166833,48.4250223 31.8692377,48.2761561 31.9505418,48.1435292 C32.0318459,48.0109024 32.1382344,47.8971115 32.2697105,47.8021532 C32.4011865,47.7071949 32.5511982,47.6394987 32.7197498,47.5990626 C32.8883015,47.5586265 33.048064,47.5494359 33.1990421,47.5714905 C33.3500201,47.5935452 33.4857594,47.644964 33.6062638,47.7257483 C33.7267682,47.8065327 33.8306407,47.9144437 33.9178844,48.0494845 C34.005128,48.1845253 34.070911,48.3444226 34.1152352,48.5291812 Z M37.1106866,47.999302 L37.2680399,48.3396914 L36.8550341,48.5306134 L35.2689125,45.0994885 L35.6955339,44.9022723 L36.4361436,46.5043716 L36.4497591,46.4980775 C36.4734213,46.3586092 36.5331699,46.2217401 36.6290067,46.0874663 C36.7248435,45.9531924 36.8620179,45.8447954 37.0405341,45.7622719 C37.2008962,45.6881406 37.3601714,45.6493979 37.5183647,45.6460426 C37.6765579,45.6426873 37.827085,45.6704165 37.9699504,45.7292311 C38.1128158,45.7880457 38.2417855,45.8743973 38.3568634,45.9882887 C38.4719413,46.10218 38.5658451,46.2377918 38.6385776,46.3951281 C38.7113102,46.5524644 38.7541276,46.7126102 38.7670311,46.8755703 C38.7799345,47.0385304 38.7632662,47.1931249 38.7170254,47.3393584 C38.6707847,47.485592 38.5947374,47.6189788 38.4888814,47.7395229 C38.3830254,47.8600669 38.2468927,47.9588018 38.0804793,48.0357305 C37.9261687,48.1070644 37.7636893,48.1408619 37.5930364,48.137124 C37.4223834,48.1333861 37.2646274,48.0860472 37.1197636,47.9951059 L37.1106866,47.999302 Z M38.1983407,46.5986384 C38.1521835,46.4987904 38.0922974,46.4089629 38.0186806,46.3291532 C37.9450638,46.2493436 37.8612153,46.1871184 37.7671324,46.1424757 C37.6730496,46.097833 37.5715897,46.074963 37.4627497,46.0738649 C37.3539098,46.0727669 37.2404904,46.0994922 37.1224882,46.1540416 C37.013563,46.204395 36.9242636,46.2713814 36.8545874,46.3550029 C36.7849111,46.4386244 36.7350884,46.5314286 36.7051176,46.6334181 C36.6751468,46.7354076 36.6644437,46.8413417 36.6730079,46.9512234 C36.6815722,47.0611052 36.7096319,47.1674813 36.7571878,47.2703551 C36.8047437,47.3732288 36.8675984,47.4635201 36.9457537,47.5412317 C37.023909,47.6189432 37.11119,47.6786637 37.2075992,47.7203948 C37.3040084,47.762126 37.4066314,47.7835403 37.5154714,47.7846383 C37.6243113,47.7857363 37.7331922,47.761109 37.8421174,47.7107557 C37.9601196,47.6562063 38.0536078,47.5863655 38.1225847,47.5012311 C38.1915616,47.4160967 38.2395219,47.3232355 38.266467,47.2226447 C38.2934121,47.1220538 38.3003331,47.0178681 38.2872303,46.9100845 C38.2741275,46.8023008 38.2444979,46.6984865 38.1983407,46.5986384 Z M42.5712019,44.3586011 C42.5849702,44.5272877 42.5522495,44.6880746 42.4730389,44.8409666 C42.3938283,44.9938587 42.2861543,45.1212095 42.1500135,45.223023 C42.0031951,45.3328219 41.8515964,45.4056129 41.695213,45.4413982 C41.5388295,45.4771835 41.3853262,45.4806392 41.2346983,45.4517653 C41.0840704,45.4228915 40.9401526,45.3640276 40.8029406,45.2751718 C40.6657286,45.186316 40.5452194,45.0724848 40.4414096,44.9336746 C40.3375997,44.7948644 40.2629692,44.6477632 40.2175159,44.4923665 C40.1720625,44.3369698 40.1574416,44.1824511 40.1736529,44.0288058 C40.1898641,43.8751605 40.2377312,43.7290609 40.3172554,43.5905027 C40.3967796,43.4519445 40.5072799,43.3297641 40.6487595,43.223958 C40.8035862,43.10817 40.962845,43.0400562 41.1265407,43.0196144 C41.2902365,42.9991726 41.4403859,43.0107121 41.5769936,43.0542335 L41.5850018,43.0482445 L40.5279434,41.6347904 L40.9043306,41.3533074 L43.1681725,44.3804215 L42.8037976,44.652921 L42.5792102,44.3526121 L42.5712019,44.3586011 Z M40.8338133,44.6402136 C40.8996926,44.7283047 40.9769215,44.8037435 41.0655024,44.8665322 C41.1540833,44.929321 41.2490227,44.9727844 41.3503235,44.9969238 C41.4516243,45.0210632 41.5554533,45.0235392 41.6618136,45.0043519 C41.7681739,44.9851646 41.8734063,44.936643 41.9775139,44.8587856 C42.0736133,44.7869173 42.1470615,44.7028523 42.1978608,44.6065882 C42.24866,44.5103241 42.2786311,44.4098662 42.287775,44.3052115 C42.2969189,44.2005568 42.2858969,44.0953759 42.2547087,43.9896658 C42.2235204,43.8839556 42.1739892,43.7857218 42.1061135,43.6949613 C42.0382379,43.6042008 41.9580087,43.5289245 41.8654237,43.4691303 C41.7728386,43.409336 41.6745625,43.368368 41.5705923,43.346225 C41.4666221,43.3240819 41.3612902,43.3237705 41.2545933,43.3452907 C41.1478964,43.3668108 41.0464998,43.4135044 40.9504005,43.4853728 C40.8462929,43.5632301 40.7695079,43.6497905 40.7200434,43.7450564 C40.6705788,43.8403223 40.6431088,43.9399503 40.6376325,44.0439434 C40.6321562,44.1479365 40.6470141,44.2512893 40.6822064,44.354005 C40.7173988,44.4567206 40.7679339,44.5521226 40.8338133,44.6402136 Z M45.1459814,39.9736886 C45.0736914,39.9145577 44.9975285,39.8686664 44.9174905,39.8360135 C44.8374525,39.8033606 44.7567461,39.7878746 44.6753689,39.789555 C44.5939917,39.7912354 44.5131978,39.8111827 44.4329847,39.8493976 C44.3527716,39.8876125 44.276346,39.9480213 44.2037058,40.030626 C44.1376693,40.1057211 44.0886273,40.1879908 44.0565783,40.2774376 C44.0245293,40.3668844 44.0095717,40.4558233 44.011705,40.5442571 C44.0138383,40.6326908 44.0318109,40.7195161 44.0656234,40.8047356 C44.0994358,40.8899551 44.1491844,40.9658839 44.2148708,41.0325243 L45.1459814,39.9736886 Z M45.6023333,39.7424574 L45.6624091,39.7952864 C45.6824345,39.8128961 45.701359,39.8317572 45.7191831,39.8518701 L44.4777023,41.2636511 C44.5549987,41.3271844 44.6405702,41.3724718 44.7344194,41.3995144 C44.8282686,41.4265571 44.9227105,41.4352568 45.0177479,41.425614 C45.1127853,41.4159712 45.2043369,41.3888383 45.2924052,41.3442145 C45.3804736,41.2995907 45.4586255,41.2384806 45.5268632,41.1608823 C45.6325217,41.0407302 45.697588,40.9137377 45.722064,40.7799012 C45.7465401,40.6460646 45.7432428,40.5210983 45.7121721,40.4049983 L46.1290926,40.3321817 C46.1706048,40.537363 46.1640919,40.7302718 46.1095537,40.9109137 C46.0550155,41.0915556 45.9584094,41.2607238 45.8197327,41.4184236 C45.7008669,41.5535948 45.5682795,41.6589407 45.4219664,41.7344646 C45.2756533,41.8099885 45.1255024,41.8532824 44.9715091,41.8643474 C44.8175159,41.8754124 44.6620372,41.8540974 44.5050682,41.8004016 C44.3480992,41.7467058 44.1995282,41.6582251 44.0593506,41.5349569 C43.9216763,41.4138899 43.8150033,41.2790258 43.7393284,41.1303605 C43.6636535,40.9816952 43.6208345,40.8297424 43.6108701,40.6744976 C43.6009056,40.5192528 43.6222962,40.3649501 43.6750423,40.2115849 C43.7277885,40.0582197 43.811392,39.9164568 43.9258553,39.786292 C44.0403187,39.6561271 44.1656013,39.5565642 44.301707,39.4876001 C44.4378126,39.4186361 44.578382,39.3824524 44.7234194,39.3790478 C44.8684568,39.3756433 45.0155301,39.4039929 45.1646439,39.4640976 C45.3137576,39.5242023 45.4596526,39.616988 45.6023333,39.7424574 Z M46.9549846,36.1799769 C46.8532563,36.1826257 46.7543543,36.2119605 46.6582755,36.2679822 C46.5621967,36.3240039 46.4840532,36.4039145 46.4238426,36.5077165 C46.3970824,36.5538506 46.3753684,36.602911 46.3587,36.654899 C46.3420317,36.7068869 46.3340571,36.7571733 46.334776,36.8057595 C46.335495,36.8543457 46.3461619,36.8990677 46.3667769,36.9399271 C46.387392,36.9807864 46.4222078,37.0154319 46.4712254,37.0438646 C46.557727,37.0940401 46.64446,37.0923278 46.731427,37.0387279 C46.818394,36.9851279 46.9243341,36.890513 47.0492505,36.7548803 C47.1291831,36.6702253 47.2092583,36.5952886 47.2894785,36.5300681 C47.3696987,36.4648475 47.451575,36.4150399 47.5351099,36.3806435 C47.6186449,36.3462472 47.7036051,36.3309829 47.7899932,36.3348501 C47.8763812,36.3387173 47.9642664,36.3665745 48.0536514,36.4184224 C48.1747536,36.488668 48.2637324,36.5711082 48.3205904,36.6657453 C48.3774483,36.7603824 48.4103873,36.861375 48.4194083,36.9687263 C48.4284293,37.0760776 48.4160408,37.1854592 48.3822424,37.2968744 C48.348444,37.4082897 48.3014402,37.5158967 48.2412297,37.6196986 C48.1509139,37.7754014 48.032415,37.9099366 47.8857294,38.0233082 C47.7390438,38.1366798 47.5752779,38.2064231 47.3944267,38.2325401 L47.3159853,37.7997619 C47.4284979,37.791808 47.5401593,37.7554237 47.6509729,37.6906081 C47.7617865,37.6257924 47.8506422,37.5357182 47.9175428,37.4203827 C47.9476481,37.3684818 47.9714527,37.3158173 47.9889573,37.2623876 C48.006462,37.2089579 48.0149701,37.1560909 48.014482,37.1037851 C48.0139938,37.0514793 48.001698,37.0029222 47.9775941,36.9581124 C47.9534902,36.9133026 47.912605,36.8741732 47.8549372,36.8407229 C47.7597855,36.7855299 47.6628019,36.7899666 47.5639835,36.854033 C47.4651651,36.9180994 47.3445623,37.0263667 47.2021715,37.1788381 C47.1447308,37.2380043 47.0832687,37.2957998 47.0177833,37.3522264 C46.9522979,37.408653 46.8812057,37.4531556 46.8045047,37.4857356 C46.7278036,37.5183156 46.6465629,37.5338107 46.5607803,37.5322215 C46.4749977,37.5306322 46.3845318,37.5022416 46.2893801,37.4470486 C46.1798114,37.383493 46.0983437,37.3063731 46.0449746,37.2156864 C45.9916054,37.1249998 45.9605981,37.0289811 45.9519517,36.9276274 C45.9433053,36.8262737 45.9534878,36.7223561 45.9824995,36.6158714 C46.0115112,36.5093866 46.0544491,36.4071282 46.1113146,36.3090931 C46.1966129,36.1620404 46.3078164,36.0367606 46.4449286,35.9332501 C46.5820408,35.8297395 46.7271217,35.7722788 46.8801758,35.7608664 L46.9549846,36.1799769 Z M49.761724,33.8421679 L49.5987668,34.2830137 L47.3757787,33.4612935 L47.5387359,33.0204478 L49.761724,33.8421679 Z M46.7645092,32.6489668 C46.8458004,32.6790158 46.9023305,32.7327841 46.9341014,32.8102733 C46.9658722,32.8877624 46.9667332,32.9671514 46.9366842,33.0484425 C46.9066352,33.1297336 46.8538523,33.1884049 46.778334,33.224458 C46.7028157,33.2605112 46.6259754,33.2640911 46.5478109,33.2351979 C46.4665198,33.2051489 46.4089191,33.1518733 46.375007,33.0753696 C46.341095,32.9988658 46.3391635,32.9199696 46.3692125,32.8386785 C46.3992615,32.7573874 46.4523333,32.6979345 46.5284295,32.660318 C46.6045257,32.6227015 46.6832181,32.6189178 46.7645092,32.6489668 Z M50.9224251,30.9881277 C51.0588185,30.9127222 51.1780716,30.8070182 51.280188,30.6710126 C51.3823045,30.535007 51.4511707,30.3873048 51.4867887,30.2279016 C51.5209529,30.0750046 51.5277066,29.9416014 51.5070501,29.8276882 C51.4863937,29.713775 51.444929,29.6165608 51.382655,29.5360427 C51.3203811,29.4555246 51.2402845,29.3898104 51.1423631,29.338898 C51.0444416,29.2879857 50.9352997,29.2490825 50.8149339,29.2221873 L50.5172742,29.1556764 L50.5150935,29.1654358 C50.6263193,29.279093 50.6997337,29.4167474 50.735339,29.578403 C50.7709442,29.7400586 50.770211,29.9038388 50.7331392,30.0697483 C50.6938867,30.2454172 50.6271832,30.3987259 50.5330268,30.529679 C50.4388704,30.6606322 50.3268504,30.7645368 50.1969633,30.8413962 C50.0670763,30.9182555 49.9235742,30.9681625 49.7664527,30.9911187 C49.6093312,31.0140749 49.4478182,31.0070172 49.2819086,30.9699454 C49.1159991,30.9328736 48.9660299,30.8703319 48.8319964,30.7823183 C48.6979629,30.6943047 48.5877248,30.5877005 48.5012789,30.4625024 C48.4148329,30.3373044 48.3558846,30.1960514 48.3244321,30.0387392 C48.2929796,29.8814271 48.2968796,29.7149391 48.3361321,29.5392702 C48.3732039,29.3733606 48.4444235,29.2227688 48.5497931,29.0874901 C48.6551627,28.9522114 48.7908539,28.8570115 48.9568709,28.8018874 L48.9590516,28.7921281 L48.5881969,28.7092621 L48.687418,28.2652124 L50.8832684,28.7558662 C51.052431,28.7936649 51.2095469,28.8509725 51.3546208,28.9277908 C51.4996947,29.0046092 51.6203325,29.1067062 51.7165379,29.2340849 C51.8127432,29.3614637 51.8784568,29.5144748 51.9136807,29.693123 C51.9489047,29.8717711 51.9396215,30.0814578 51.8858311,30.3221893 C51.8407634,30.5238832 51.7589175,30.7182099 51.640291,30.9051752 C51.5216645,31.0921405 51.379309,31.2439148 51.2132204,31.3605027 L50.9224251,30.9881277 Z M49.3779125,30.494437 C49.4852657,30.5184246 49.5915538,30.5242429 49.6967801,30.511892 C49.8020064,30.4995411 49.8994797,30.4683809 49.9892031,30.4184104 C50.0789264,30.36844 50.1570988,30.3013737 50.2237227,30.2172095 C50.2903465,30.1330454 50.3371053,30.030782 50.3640006,29.9104163 C50.3901689,29.7933037 50.3930112,29.6812273 50.3725275,29.5741838 C50.3520437,29.4671403 50.3128372,29.3712845 50.2549067,29.2866136 C50.1969762,29.2019427 50.1225815,29.1298177 50.0317204,29.0702363 C49.9408593,29.0106549 49.8385006,28.9681442 49.7246411,28.9427027 C49.6140348,28.9179882 49.5057566,28.913433 49.3998035,28.929037 C49.2938503,28.9446411 49.1956501,28.9790544 49.1051998,29.032278 C49.0147496,29.0855015 48.9368452,29.1551894 48.8714845,29.2413435 C48.8061238,29.3274977 48.76036,29.4291295 48.7341916,29.5462421 C48.7072964,29.6666079 48.7052674,29.778866 48.7281046,29.8830198 C48.7509418,29.9871736 48.7915067,30.0807713 48.8498007,30.1638156 C48.9080947,30.24686 48.9830345,30.3165452 49.0746225,30.3728734 C49.1662105,30.4292017 49.2673061,30.4697225 49.3779125,30.494437 Z M48.6386571,25.4631707 C48.6987371,25.4572645 48.7662943,25.4531199 48.8413309,25.4507367 C48.9163675,25.4483535 48.9788829,25.4474786 49.0288792,25.4481119 L49.0290692,25.4331131 C48.9661206,25.4023132 48.9074764,25.3607342 48.8531349,25.3083748 C48.7987935,25.2560154 48.7512139,25.1962419 48.7103947,25.1290525 C48.6695755,25.0618631 48.6380073,24.9881248 48.6156889,24.9078353 C48.5933706,24.8275458 48.5827605,24.7440722 48.5838582,24.657412 C48.5858002,24.5040902 48.6132988,24.3727626 48.6663548,24.2634253 C48.7194108,24.154088 48.7897323,24.0633056 48.8773212,23.9910755 C48.9649102,23.9188453 49.0672537,23.8659712 49.1843549,23.8324515 C49.3014561,23.7989318 49.4266665,23.7830166 49.5599898,23.7847053 L51.0298719,23.8033237 L51.0239191,24.273286 L49.7090245,24.2566308 C49.6123651,24.2554064 49.5206117,24.2617447 49.4337616,24.2756459 C49.3469115,24.2895471 49.2699034,24.3160736 49.2027352,24.3552262 C49.1355669,24.3943788 49.0815418,24.4486984 49.0406582,24.5181865 C48.9997746,24.5876746 48.9786365,24.6774132 48.9772433,24.7874049 C48.974879,24.9740575 49.0437745,25.1274409 49.1839317,25.2475596 C49.324089,25.3676784 49.5124892,25.4292356 49.7491381,25.4322331 L51.009037,25.4481918 L51.0030842,25.9181541 L49.1432334,25.8945961 C49.0799048,25.8937939 48.9982244,25.8944261 48.8981897,25.8964926 C48.798155,25.8985591 48.7097663,25.9024399 48.633021,25.908135 L48.6386571,25.4631707 Z M48.8103197,19.5348931 C48.7191836,19.555302 48.6360775,19.5869274 48.5609989,19.6297701 C48.4859203,19.6726128 48.4239394,19.7265731 48.3750543,19.7916524 C48.3261693,19.8567317 48.2920198,19.9326222 48.272605,20.0193262 C48.2531902,20.1060303 48.2535786,20.2034466 48.2737701,20.3115781 C48.2921261,20.4098795 48.3266135,20.499233 48.3772333,20.5796413 C48.4278532,20.6600496 48.4886184,20.7266939 48.5595305,20.7795762 C48.6304427,20.8324585 48.7098615,20.8718832 48.7977893,20.8978515 C48.885717,20.9238197 48.9761654,20.9315143 49.0691371,20.9209355 L48.8103197,19.5348931 Z M48.9099011,19.0330878 L48.9885418,19.0184031 C49.0147555,19.0135082 49.0412747,19.0102517 49.0681003,19.0086335 L49.4131901,20.8566901 C49.5108796,20.8350574 49.5993154,20.795655 49.6784999,20.7384817 C49.7576845,20.6813084 49.8227992,20.6123516 49.8738459,20.5316093 C49.9248926,20.450867 49.9600243,20.3620771 49.9792418,20.265237 C49.9984594,20.1683969 49.9985843,20.0691893 49.9796165,19.9676112 C49.950247,19.810329 49.89045,19.680772 49.8002238,19.5789362 C49.7099976,19.4771004 49.6096167,19.4025945 49.499078,19.3554162 L49.699001,18.9823803 C49.8860875,19.0763021 50.0338854,19.2004471 50.1423992,19.354819 C50.2509129,19.5091909 50.3244424,19.6895905 50.3629899,19.8960234 C50.3960306,20.0729659 50.3971334,20.2423058 50.3662983,20.4040481 C50.3354633,20.5657904 50.2768958,20.710668 50.1905942,20.8386851 C50.1042926,20.9667022 49.9915918,21.0759107 49.8524884,21.166314 C49.7133851,21.2567173 49.5520879,21.3190503 49.368592,21.3533147 C49.1883728,21.3869672 49.0164225,21.3877097 48.8527359,21.3555423 C48.6890492,21.3233748 48.5430466,21.2633219 48.4147236,21.175382 C48.2864005,21.087442 48.1781641,20.9754074 48.090011,20.8392748 C48.0018579,20.7031423 47.9418738,20.5498838 47.9100569,20.3794947 C47.8782399,20.2091057 47.8771814,20.0490826 47.9068813,19.8994206 C47.9365811,19.7497586 47.9948326,19.6168083 48.0816374,19.5005656 C48.1684422,19.3843229 48.2814932,19.2860694 48.4207937,19.2058022 C48.5600943,19.125535 48.7231285,19.0679641 48.9099011,19.0330878 Z M47.3325462,17.0085003 C47.2737715,17.0320946 47.1986052,17.0640651 47.1070449,17.1044127 C47.0154846,17.1447603 46.9353734,17.1823077 46.8667087,17.217056 L46.7009284,16.8040889 C46.754126,16.7755496 46.8164505,16.7451424 46.8879036,16.7128666 C46.9593568,16.6805907 47.018283,16.6551396 47.064684,16.6365125 L47.0590959,16.6225923 C46.9043369,16.6128801 46.7636138,16.5643098 46.6369225,16.4768799 C46.5102312,16.3894499 46.4170836,16.2714951 46.3574769,16.1230118 C46.3301571,16.0549569 46.3133707,15.9952463 46.3071173,15.943878 L46.7182551,15.8003834 C46.7276242,15.8684604 46.7465892,15.9380721 46.7751508,16.0092203 C46.8173722,16.114396 46.8733384,16.1978888 46.9430511,16.2597013 C47.0127638,16.3215138 47.0903446,16.364901 47.1757959,16.3898642 C47.2612472,16.4148274 47.3514729,16.4226076 47.446476,16.4132052 C47.541479,16.4038027 47.6353801,16.3804747 47.7281822,16.3432205 L48.8835622,15.8794081 L49.0586561,16.3155756 L47.3325462,17.0085003 Z M43.2864395,8.89306789 L43.4407527,7.74002303 L43.8462415,8.25441955 L43.7534487,8.8878345 C43.9668818,8.88936844 44.1623497,8.92734453 44.3398584,9.00176392 C44.5173672,9.0761833 44.682471,9.21024985 44.835175,9.40396757 C44.9300991,9.5243867 45.0038791,9.65298146 45.0565175,9.78975573 C45.1091558,9.92653 45.1345987,10.062456 45.132847,10.1975379 C45.1310952,10.3326198 45.100224,10.4630654 45.0402322,10.5888786 C44.9802404,10.7146917 44.8861096,10.828154 44.7578371,10.9292688 C44.6531248,11.0118115 44.5456107,11.067913 44.4352917,11.0975749 C44.3249726,11.1272369 44.2143929,11.1390664 44.1035492,11.1330638 C43.9927056,11.1270612 43.8824945,11.1057059 43.7729128,11.0689973 C43.663331,11.0322887 43.5592635,10.9891129 43.4607072,10.9394686 C43.4392452,11.1006989 43.40106,11.2528264 43.3461505,11.3958558 C43.2912409,11.5388851 43.2009601,11.6599236 43.0753054,11.7589748 C42.9627397,11.8477082 42.848581,11.9048031 42.7328259,11.9302612 C42.6170708,11.9557193 42.5037112,11.9559458 42.3927438,11.9309406 C42.2817765,11.9059354 42.1774702,11.8597645 42.079822,11.7924265 C41.9821737,11.7250885 41.8951749,11.6429913 41.8188229,11.5461325 C41.742471,11.4492736 41.6839905,11.3468182 41.6433798,11.2387631 C41.602769,11.130708 41.5841563,11.022292 41.5875411,10.9135119 C41.5909259,10.8047319 41.6177171,10.6987246 41.6679156,10.5954869 C41.7181142,10.4922492 41.7968773,10.3983287 41.9042074,10.3137224 C41.9958306,10.2414976 42.0911874,10.1928572 42.1902806,10.1678 C42.2893738,10.1427427 42.3906911,10.1339701 42.4942355,10.141482 C42.59778,10.1489939 42.701485,10.1701723 42.8053536,10.2050178 C42.9092222,10.2398633 43.0104332,10.2821076 43.1089895,10.3317518 L43.2419175,9.32926485 L42.377429,9.44408958 L42.0369422,9.01215357 L43.2864395,8.89306789 Z M42.1937362,10.6648606 C42.0942596,10.7432762 42.0368011,10.8426859 42.021359,10.9630927 C42.005917,11.0834995 42.0394668,11.1960574 42.1220095,11.3007696 C42.2066157,11.4080997 42.3108069,11.4702779 42.4345862,11.4873059 C42.5583655,11.504334 42.6752274,11.4695136 42.7851753,11.3828438 C42.829678,11.3477632 42.8674735,11.3041753 42.8985631,11.2520789 C42.9296526,11.1999826 42.9564761,11.1438217 42.9790342,11.0835948 C43.0015924,11.0233679 43.0182985,10.9624491 43.0291532,10.9008366 C43.040008,10.839224 43.0474517,10.7813622 43.0514848,10.7272493 C42.9799083,10.6902932 42.9067468,10.6567101 42.8319982,10.6264989 C42.7572496,10.5962878 42.6824255,10.5767486 42.6075235,10.5678807 C42.5326215,10.5590129 42.4599846,10.5610938 42.3896106,10.5741235 C42.3192366,10.5871532 42.2539458,10.6173986 42.1937362,10.6648606 Z M43.5299919,10.5346851 C43.6948892,10.6254126 43.8525145,10.6773028 44.0028727,10.6903571 C44.1532309,10.7034114 44.2990887,10.654223 44.4404502,10.5427904 C44.5137488,10.4850105 44.5691525,10.4179926 44.6066628,10.3417347 C44.6441731,10.2654768 44.6647824,10.1866258 44.6684914,10.1051793 C44.6722003,10.0237328 44.6604178,9.94282687 44.6331436,9.86245918 C44.6058693,9.78209149 44.5664382,9.70918615 44.514849,9.64374098 C44.4096071,9.51023282 44.2914252,9.42088358 44.1602997,9.37569059 C44.0291742,9.33049759 43.8761003,9.31534159 43.7010733,9.33022213 L43.5299919,10.5346851 Z M33.8719418,4.31214031 L34.3753258,4.53373581 L35.1750841,2.71697725 L35.6052486,2.90634068 L34.8054903,4.72309924 L35.2356548,4.91246267 L35.0805379,5.26483145 L34.6503735,5.07546803 L34.4509375,5.52851361 C34.3945311,5.65664836 34.327999,5.76848694 34.2513393,5.86403271 C34.1746796,5.95957849 34.0860956,6.03257368 33.9855845,6.08302048 C33.8850735,6.13346728 33.7736457,6.15907609 33.6512979,6.15984767 C33.52895,6.16061925 33.3945582,6.12877329 33.2481185,6.06430882 C33.1443904,6.01864649 33.0590928,5.96835056 32.9922232,5.91341953 L33.2057365,5.56490541 C33.2352665,5.588831 33.2654677,5.61123084 33.2963407,5.63210561 C33.3272138,5.65298037 33.3640056,5.67281852 33.4067172,5.69162066 C33.4890895,5.72788192 33.5618232,5.74260073 33.6249205,5.73577753 C33.6880177,5.72895433 33.7440383,5.70717999 33.7929839,5.67045384 C33.8419295,5.63372769 33.8847437,5.58610886 33.9214279,5.52759593 C33.9581121,5.469083 33.9912268,5.40626838 34.020773,5.33915018 L34.220209,4.8861046 L33.716825,4.6645091 L33.8719418,4.31214031 Z M31.7909952,3.58640074 C31.7741188,3.64744449 31.7539639,3.72660173 31.7305298,3.82387482 C31.7070958,3.92114792 31.6883772,4.00761894 31.6743736,4.08329046 L31.245463,3.96471235 C31.2550255,3.90510497 31.2686368,3.83710744 31.2862974,3.76071773 C31.303958,3.68432802 31.3194498,3.62203789 31.3327732,3.57384545 L31.3183156,3.56984844 C31.2167533,3.68702265 31.0928022,3.76947367 30.9464584,3.81720395 C30.8001146,3.86493423 30.6498371,3.86748181 30.4956213,3.82484678 C30.4249391,3.80530572 30.3672791,3.78244815 30.3226395,3.75627338 L30.4578299,3.34233065 C30.5176453,3.3761594 30.5844995,3.40328801 30.6583946,3.4237173 C30.7676308,3.45391712 30.8679592,3.46003963 30.9593828,3.44208502 C31.0508064,3.42413041 31.1323492,3.38874683 31.2040137,3.33593321 C31.2756782,3.2831196 31.336574,3.21609032 31.386703,3.13484337 C31.4368319,3.05359641 31.4752193,2.96478183 31.5018662,2.86839696 L31.8336184,1.66841136 L32.286625,1.79365116 L31.7909952,3.58640074 Z M26.0622852,2.02662865 C26.0839701,1.84458136 26.136152,1.68127545 26.2188325,1.536706 C26.3015129,1.39213655 26.4065523,1.27121314 26.5339537,1.17393213 C26.661355,1.07665113 26.8064844,1.00665999 26.969346,0.963956628 C27.1322077,0.921253265 27.3030047,0.910547052 27.481742,0.931837669 C27.6604793,0.953128286 27.8239824,1.00365524 27.9722561,1.08342005 C28.1205297,1.16318486 28.2443298,1.26521 28.3436601,1.38949855 C28.4429903,1.5137871 28.5158582,1.65590224 28.5622657,1.81584825 C28.6086733,1.97579425 28.6210345,2.14678833 28.5993496,2.32883561 C28.5776647,2.5108829 28.5255814,2.67336134 28.443098,2.81627581 C28.3606147,2.95919028 28.2565999,3.07855731 28.1310507,3.17438048 C28.0055014,3.27020364 27.8612981,3.33946587 27.6984364,3.38216923 C27.5355748,3.4248726 27.3647778,3.43557881 27.1860405,3.41428819 C27.0073031,3.39299758 26.8438001,3.34247062 26.6955264,3.26270581 C26.5472528,3.18294101 26.4225266,3.08164477 26.3213442,2.95881406 C26.2201619,2.83598335 26.1462695,2.69542459 26.0996647,2.53713356 C26.05306,2.37884253 26.0406003,2.20867593 26.0622852,2.02662865 Z M26.5488455,2.08458615 C26.5354403,2.19712447 26.5400036,2.30676614 26.5625357,2.41351445 C26.5850678,2.52026276 26.6248001,2.6164701 26.6817337,2.70213935 C26.7386674,2.7878086 26.813195,2.8596273 26.9053187,2.91759759 C26.9974425,2.97556788 27.1063918,3.01204363 27.2321699,3.02702591 C27.357948,3.0420082 27.472417,3.03214533 27.5755804,2.997437 C27.6787437,2.96272868 27.7680562,2.91042609 27.8435206,2.84052767 C27.918985,2.77062924 27.9802047,2.68644698 28.0271815,2.58797835 C28.0741584,2.48950973 28.104349,2.38400784 28.1177542,2.27146952 C28.1311594,2.1589312 28.126596,2.04928953 28.1040639,1.94254122 C28.0815319,1.83579291 28.0418981,1.73875809 27.9851616,1.65143387 C27.9284251,1.56410964 27.8539961,1.49146347 27.7618723,1.43349317 C27.6697486,1.37552288 27.5607993,1.33904714 27.4350212,1.32406485 C27.309243,1.30908257 27.194774,1.31894544 27.0916107,1.35365376 C26.9884474,1.38836208 26.8990363,1.44149215 26.8233748,1.51304555 C26.7477133,1.58459895 26.686395,1.66960869 26.6394181,1.76807731 C26.5924413,1.86654594 26.5622507,1.97204783 26.5488455,2.08458615 Z M23.2854672,3.51565308 C23.2738928,3.45640348 23.2633634,3.38954325 23.2538786,3.3150704 C23.2443938,3.24059754 23.2375973,3.17844646 23.2334888,3.12861529 L23.2185395,3.12984783 C23.1938449,3.1954324 23.1580117,3.25775361 23.1110388,3.31681333 C23.0640659,3.37587304 23.0090714,3.42890408 22.9460536,3.47590803 C22.8830358,3.52291198 22.8126216,3.56132743 22.734809,3.59115555 C22.6569965,3.62098366 22.5749044,3.63945812 22.4885304,3.64657949 C22.3357148,3.65917883 22.202372,3.64425195 22.088498,3.6017984 C21.974624,3.55934485 21.8775849,3.49794487 21.7973778,3.41759662 C21.7171707,3.33724836 21.654834,3.24037729 21.6103657,3.1269805 C21.5658974,3.01358371 21.5381858,2.89044561 21.5272298,2.75756249 L21.4064411,1.29253345 L21.8748517,1.25391392 L21.9829042,2.56446711 C21.9908473,2.66080737 22.0058539,2.75154688 22.0279247,2.83668836 C22.0499954,2.92182984 22.0837017,2.99597686 22.1290446,3.05913163 C22.1743875,3.12228641 22.2335833,3.1709196 22.3066337,3.20503266 C22.3796841,3.23914572 22.4710223,3.25168273 22.5806508,3.24264407 C22.7666872,3.22730575 22.9128497,3.14418197 23.0191428,2.99327025 C23.1254359,2.84235854 23.1688583,2.64897181 23.1494115,2.41310428 L23.0458783,1.15736511 L23.514289,1.11874558 L23.6671237,2.97245579 C23.6723278,3.03557527 23.6806992,3.11682801 23.6922382,3.21621645 C23.7037773,3.31560489 23.7160185,3.40322779 23.7289624,3.47908779 L23.2854672,3.51565308 Z M18.0925699,4.32173857 L18.6977937,4.1467984 L18.3548554,2.96036747 C18.315054,2.82267035 18.2609742,2.73160717 18.1926142,2.68717521 C18.1242542,2.64274324 18.034036,2.6367256 17.9219569,2.66912209 C17.8803276,2.68115507 17.836885,2.69891679 17.791628,2.72240778 C17.7463709,2.74589876 17.7073063,2.77280431 17.6744329,2.80312523 L17.5531149,2.43743144 C17.6019996,2.40248245 17.6576445,2.36991695 17.7200511,2.33973396 C17.7824578,2.30955096 17.8488849,2.28427809 17.9193346,2.26391458 C18.133886,2.20189844 18.3151229,2.21370233 18.4630508,2.29932661 C18.6109787,2.38495088 18.7191887,2.54624418 18.7876842,2.78321132 L19.1445066,4.01767589 L19.5816127,3.8913302 L19.6885206,4.26118924 L19.2514145,4.38753492 L19.4402388,5.04079243 L18.9935259,5.16991494 L18.8047016,4.51665743 L18.1994777,4.6915976 L18.0925699,4.32173857 Z M14.7614059,4.76589157 L15.8158245,4.28236147 L15.982559,4.6459541 L14.9281404,5.1294842 L14.7614059,4.76589157 Z M11.364105,7.35583199 C11.417746,7.43228427 11.4786906,7.49703412 11.5469406,7.55008348 C11.6151906,7.60313284 11.6887189,7.63983328 11.7675278,7.66018589 C11.8463367,7.6805385 11.9295158,7.68314505 12.0170676,7.66800561 C12.1046194,7.65286618 12.1945163,7.61533436 12.286761,7.55540904 C12.3706197,7.50093148 12.4400521,7.43495748 12.4950603,7.35748506 C12.5500684,7.28001264 12.5884827,7.19841481 12.6103043,7.11268913 C12.632126,7.02696345 12.6382623,6.9385101 12.6287135,6.84732645 C12.6191646,6.75614279 12.5917631,6.66960224 12.5465079,6.58770221 L11.364105,7.35583199 Z M10.8622709,7.45526822 L10.8186891,7.38818153 C10.8041618,7.36581919 10.7910322,7.34254924 10.7793002,7.31837098 L12.3558374,6.29419794 C12.2985645,6.21215508 12.2283977,6.14544651 12.1453347,6.09407024 C12.0622717,6.04269396 11.9736857,6.00881938 11.8795741,5.99244546 C11.7854626,5.97607155 11.6899854,5.97747934 11.5931397,5.99666889 C11.4962941,6.01585843 11.4045456,6.05359938 11.3178915,6.10989286 C11.1837175,6.19705696 11.0867814,6.30176659 11.0270805,6.42402489 C10.9673795,6.54628319 10.9368154,6.6674991 10.9353871,6.78767626 L10.5142897,6.74522665 C10.5297148,6.53645711 10.5880683,6.3524705 10.6893518,6.1932613 C10.7906353,6.03405211 10.9293267,5.89724813 11.1054301,5.78284525 C11.2563759,5.68478563 11.4124815,5.61914832 11.5737515,5.58593133 C11.7350215,5.55271433 11.8912851,5.5515667 12.0425472,5.5824884 C12.1938092,5.61341009 12.3377594,5.67591051 12.4744023,5.76999152 C12.6110451,5.86407253 12.7302104,5.98937935 12.8319019,6.14591574 C12.9317774,6.29965684 12.9980778,6.45831282 13.0308051,6.62188842 C13.0635324,6.78546403 13.0637364,6.94333446 13.0314171,7.09550444 C12.9990977,7.24767441 12.9368422,7.39047189 12.8446485,7.52390115 C12.7524548,7.6573304 12.6336821,7.77125721 12.4883269,7.86568499 C12.3429717,7.96011276 12.195461,8.022154 12.0457905,8.05181057 C11.8961199,8.08146714 11.7510015,8.07835559 11.610431,8.04247582 C11.4698605,8.00659606 11.3359027,7.93959162 11.2085537,7.8414605 C11.0812047,7.74332938 10.9657783,7.61459991 10.8622709,7.45526822 Z M9.63273937,10.3502201 C9.58613729,10.311844 9.53550332,10.266929 9.48083596,10.2154737 C9.4261686,10.1640184 9.38140986,10.1203651 9.3465584,10.0845126 L9.33580271,10.094968 C9.3584364,10.1612921 9.37039759,10.2321785 9.37168664,10.3076294 C9.37297568,10.3830803 9.36424012,10.4589774 9.3454797,10.5353231 C9.32671927,10.6116688 9.29678953,10.6860873 9.25568958,10.7585808 C9.21458962,10.8310743 9.16296826,10.8975246 9.10082396,10.9579338 C8.99087635,11.0648117 8.87845991,11.1380623 8.76357126,11.177688 C8.64868262,11.2173136 8.53474359,11.2316118 8.42175075,11.220583 C8.3087579,11.2095542 8.19905472,11.1744104 8.0926379,11.1151506 C7.98622108,11.0558909 7.88654555,10.9784588 7.79360831,10.8828522 L6.76898042,9.82879448 L7.10599208,9.50119236 L8.02258097,10.4441079 C8.08996047,10.5134227 8.15923165,10.5739237 8.2303966,10.6256125 C8.30156154,10.6773014 8.37471822,10.7131064 8.44986883,10.7330285 C8.52501943,10.7529506 8.60163091,10.7528567 8.67970555,10.7327466 C8.7577802,10.7126366 8.83625408,10.6642456 8.91512954,10.5875724 C9.04897881,10.4574603 9.10895507,10.3003747 9.09506014,10.1163108 C9.0811652,9.93224701 8.99173728,9.75536687 8.82677369,9.58566512 L7.94852121,8.68218707 L8.28553286,8.35458496 L9.58200081,9.68829065 C9.62614599,9.7337038 9.68426426,9.79110027 9.75635735,9.86048181 C9.82845044,9.92986334 9.89360563,9.98971669 9.95182487,10.0400436 L9.63273937,10.3502201 Z M4.39469765,13.9548249 C4.32759126,13.7994497 4.30705328,13.6366576 4.33308308,13.4664438 C4.35911289,13.29623 4.42029064,13.1410874 4.51661818,13.0010113 C4.62050082,12.849949 4.74077263,12.7324101 4.87743723,12.6483914 C5.01410182,12.5643726 5.15839998,12.511901 5.31033604,12.4909751 C5.46227209,12.4700492 5.61746392,12.479682 5.77591619,12.5198736 C5.93436845,12.5600653 6.08500364,12.6292682 6.22782625,12.7274845 C6.37064887,12.8257008 6.48848872,12.9411229 6.58134933,13.0737542 C6.67420994,13.2063855 6.7375831,13.3480669 6.77147069,13.4988029 C6.80535829,13.6495388 6.80684161,13.8032727 6.77592068,13.9600094 C6.74499976,14.116746 6.67948773,14.2678967 6.57938264,14.4134659 C6.46983367,14.572768 6.34080674,14.6883315 6.19229798,14.7601599 C6.04378922,14.8319882 5.89786203,14.8691806 5.75451204,14.8717382 L5.74884574,14.8799779 L7.20315725,15.8800794 L6.93684126,16.2673465 L3.82222512,14.125486 L4.08004166,13.7505785 L4.38903135,13.9630647 L4.39469765,13.9548249 Z M5.95017767,13.1312311 C5.85954024,13.0689015 5.76220699,13.0221943 5.65817498,12.9911082 C5.55414297,12.960022 5.45028171,12.9492797 5.34658807,12.9588809 C5.24289443,12.968482 5.14374909,12.9994141 5.04914907,13.0516779 C4.95454905,13.1039417 4.87041918,13.1836309 4.79675695,13.2907479 C4.72876104,13.3896251 4.68613041,13.4927958 4.66886378,13.600263 C4.65159715,13.7077302 4.65540406,13.8124945 4.68028461,13.9145591 C4.70516517,14.0166237 4.74931645,14.1127235 4.81273979,14.2028613 C4.87616313,14.2929991 4.95456563,14.370176 5.04794965,14.4343944 C5.14133367,14.4986127 5.24145676,14.5442044 5.34832193,14.5711706 C5.4551871,14.5981369 5.5614093,14.605446 5.66699171,14.5930983 C5.77257413,14.5807505 5.87244939,14.5472864 5.96662051,14.4927049 C6.06079162,14.4381233 6.14187392,14.3613951 6.20986983,14.2625179 C6.28353206,14.155401 6.32852363,14.0487971 6.34484587,13.9427032 C6.36116811,13.8366093 6.355258,13.7334327 6.32711538,13.6331703 C6.29897275,13.5329079 6.2517739,13.4397691 6.18551739,13.3537512 C6.11926089,13.2677333 6.04081511,13.1935606 5.95017767,13.1312311 Z M1.61239337,21.8606955 C1.49706265,21.7368264 1.42311555,21.5903514 1.39054985,21.4212663 C1.35798415,21.2521812 1.36358534,21.0855062 1.4073536,20.9212362 C1.45455466,20.7440823 1.52843906,20.5930135 1.62900902,20.4680253 C1.72957899,20.3430371 1.84792097,20.2452087 1.98403853,20.1745371 C2.12015609,20.1038656 2.26958988,20.0608908 2.43234438,20.0456114 C2.59509889,20.0303319 2.76021915,20.0450052 2.92771012,20.0896317 C3.09520109,20.1342582 3.24492691,20.2034728 3.37689209,20.2972776 C3.50885727,20.3910824 3.61607824,20.503303 3.69855823,20.6339427 C3.78103822,20.7645824 3.83399631,20.9089145 3.85743409,21.0669435 C3.88087186,21.2249724 3.86984858,21.3893404 3.82436393,21.5600524 C3.77458826,21.7468692 3.69179334,21.8990135 3.57597668,22.0164897 C3.46016002,22.1339659 3.3351589,22.2179465 3.20096956,22.268434 L3.19839497,22.2780968 L4.90389543,22.7325121 L4.78288968,23.186668 L1.13031646,22.2134728 L1.24746033,21.7738112 L1.60981878,21.8703584 L1.61239337,21.8606955 Z M2.80155519,20.5631134 C2.69526284,20.5347928 2.58790208,20.5234354 2.47946969,20.529041 C2.37103729,20.5346465 2.26958884,20.5593603 2.1751213,20.6031831 C2.08065375,20.6470059 1.9976252,20.7093986 1.92603316,20.7903631 C1.85444111,20.8713276 1.80191096,20.9746174 1.76844112,21.1002357 C1.73754588,21.216191 1.73198673,21.3276838 1.75176352,21.4347175 C1.77154031,21.5417512 1.81026353,21.6391708 1.86793434,21.7269791 C1.92560515,21.8147874 1.99942999,21.8905132 2.08941106,21.9541587 C2.17939213,22.0178042 2.27913783,22.0642157 2.38865116,22.0933945 C2.49816448,22.1225734 2.60777935,22.1319441 2.71749905,22.1215071 C2.82721874,22.11107 2.92973993,22.0823301 3.02506567,22.0352863 C3.12039142,21.9882426 3.20325838,21.9232196 3.27366903,21.8402155 C3.34407969,21.7572114 3.39473187,21.6577332 3.42562711,21.5417779 C3.45909696,21.4161597 3.46572883,21.3006407 3.44552294,21.1952175 C3.42531705,21.0897942 3.38514496,20.9945758 3.32500546,20.9095594 C3.26486596,20.824543 3.18916316,20.7526288 3.09789478,20.6938148 C3.00662641,20.6350007 2.90784753,20.591434 2.80155519,20.5631134 Z M2.31596573,26.8834717 C2.40934628,26.8850154 2.49755266,26.8737717 2.58058751,26.8497402 C2.66362237,26.8257088 2.73653358,26.7877972 2.79932334,26.7360042 C2.86211309,26.6842112 2.91311514,26.6184514 2.95233099,26.5387229 C2.99154685,26.4589944 3.01402571,26.3642062 3.01976826,26.2543557 C3.02498875,26.1544915 3.01242868,26.0595406 2.98208767,25.9695001 C2.95174666,25.8794596 2.90831423,25.8004186 2.85178907,25.7323746 C2.79526391,25.6643306 2.72731209,25.6073727 2.64793159,25.5614993 C2.56855108,25.5156258 2.48243287,25.4869245 2.38957437,25.4753944 L2.31596573,26.8834717 Z M2.10142758,27.3479051 L2.02153667,27.3437287 C1.99490623,27.3423366 1.9683632,27.3392801 1.94190678,27.3345592 L2.04005163,25.4571227 C1.94001348,25.4552311 1.84480156,25.4727843 1.75441303,25.5097829 C1.6640245,25.5467815 1.58454841,25.5985358 1.51598237,25.6650474 C1.44741633,25.731559 1.39243298,25.8096276 1.35103067,25.8992555 C1.30962837,25.9888834 1.28623031,26.0852924 1.28083579,26.1884854 C1.272483,26.348268 1.30021334,26.4882385 1.36402766,26.608401 C1.42784198,26.7285635 1.50793984,26.8245416 1.60432365,26.8963382 L1.32245745,27.212054 C1.16262985,27.0768586 1.04808523,26.9215018 0.978820178,26.7459789 C0.909555121,26.5704561 0.880404552,26.3778402 0.891367596,26.1681256 C0.900764491,25.9883701 0.939423981,25.8234985 1.00734723,25.6735058 C1.07527047,25.5235131 1.16619508,25.3964211 1.28012378,25.2922261 C1.39405248,25.1880311 1.52923046,25.1083135 1.68566179,25.053071 C1.84209312,24.9978284 2.01351275,24.97508 2.19992581,24.9848249 C2.38301006,24.9943958 2.55033474,25.034018 2.70190485,25.1036927 C2.85347496,25.1733673 2.9813121,25.2659998 3.0854201,25.3815929 C3.18952811,25.497186 3.268457,25.6314883 3.32220914,25.7845038 C3.37596128,25.9375193 3.39831259,26.1005736 3.38926373,26.2736714 C3.38021486,26.4467693 3.34369829,26.6025738 3.27971291,26.7410897 C3.21572752,26.8796056 3.12790853,26.9951775 3.01625329,27.0878087 C2.90459805,27.1804399 2.77164999,27.249426 2.61740511,27.2947691 C2.46316024,27.3401122 2.29116944,27.3578241 2.10142758,27.3479051 Z M1.46895612,31.0788028 L1.39668596,30.5739493 L3.60602324,29.2828437 L3.67971046,29.7975962 L1.93201643,30.7498649 L1.93343349,30.759764 L3.87880767,31.188418 L3.94966076,31.6833724 L1.46895612,31.0788028 Z M4.31354798,35.5815459 C4.40091395,35.5485384 4.47875408,35.5055535 4.54707072,35.45259 C4.61538735,35.3996264 4.66917457,35.3374954 4.70843399,35.2661948 C4.74769341,35.1948943 4.77084473,35.1149595 4.77788865,35.026388 C4.78493256,34.9378166 4.770865,34.8414205 4.73568554,34.7371971 C4.7037042,34.6424485 4.65700815,34.5588249 4.59559597,34.4863238 C4.53418379,34.4138227 4.46466023,34.3563741 4.38702321,34.3139763 C4.3093862,34.2715785 4.22521717,34.2436998 4.1345136,34.2303393 C4.04381003,34.2169788 3.95317756,34.2220648 3.86261346,34.2455975 L4.31354798,35.5815459 Z M4.28543714,36.0923636 L4.20963865,36.1179486 C4.18437236,36.1264769 4.15857343,36.133426 4.1322411,36.1387961 L3.53099507,34.3575316 C3.43731253,34.3926712 3.35528797,34.4441047 3.28491894,34.5118334 C3.21454991,34.5795622 3.1597664,34.6569813 3.12056675,34.7440932 C3.0813671,34.8312051 3.05905515,34.9240493 3.05363022,35.0226286 C3.04820529,35.121208 3.06201631,35.2194496 3.09506369,35.3173565 C3.14623382,35.4689543 3.2236355,35.5888279 3.32727107,35.6769809 C3.43090663,35.765134 3.5407575,35.8248019 3.65682698,35.8559863 L3.51128235,36.2534051 C3.31285835,36.1866925 3.1490883,36.0845378 3.01996729,35.9469381 C2.89084628,35.8093385 2.79270685,35.6410551 2.72554605,35.4420831 C2.66797966,35.2715356 2.64310238,35.1040294 2.65091349,34.9395595 C2.6587246,34.7750895 2.69636201,34.6234219 2.76382685,34.484552 C2.83129168,34.3456821 2.92753582,34.2217263 3.05256214,34.1126808 C3.17758846,34.0036353 3.32853137,33.9192646 3.50539539,33.8595661 C3.67910113,33.8009337 3.84924251,33.7760464 4.01582464,33.7849037 C4.18240677,33.7937609 4.33539699,33.8327109 4.4747999,33.9017549 C4.61420281,33.9707989 4.73710257,34.0665199 4.84350286,34.188921 C4.94990315,34.3113221 5.03081924,34.4546359 5.08625355,34.6188668 C5.14168786,34.7830976 5.16521267,34.9413857 5.15682869,35.0937356 C5.14844471,35.2460855 5.10944488,35.3858998 5.03982804,35.5131827 C4.97021119,35.6404655 4.87208158,35.7536241 4.74543627,35.8526617 C4.61879096,35.9516992 4.46545945,36.0315991 4.28543714,36.0923636 Z M4.77336491,39.243166 L4.53846361,38.8360771 L7.81249779,36.9468709 L8.0473991,37.3539598 L4.77336491,39.243166 Z M8.83673014,42.7381179 C8.69148714,42.8499925 8.53829765,42.9269649 8.37715706,42.9690375 C8.21601648,43.0111101 8.05612756,43.0206636 7.89748551,42.9976984 C7.73884345,42.9747332 7.58729652,42.9200083 7.44284016,42.8335221 C7.29838379,42.7470359 7.17123728,42.6324934 7.0613968,42.4898912 C6.95155632,42.347289 6.87326354,42.1951165 6.82651611,42.0333692 C6.77976867,41.8716219 6.76604885,41.7117865 6.78535622,41.5538581 C6.80466359,41.3959298 6.85522219,41.2444363 6.93703354,41.0993733 C7.01884489,40.9543102 7.13237036,40.8258433 7.27761337,40.7139688 C7.42285637,40.6020942 7.57538568,40.5256303 7.73520587,40.4845748 C7.89502606,40.4435193 8.0530861,40.4343226 8.20939072,40.4569844 C8.36569534,40.4796462 8.51607357,40.5342195 8.66052994,40.6207057 C8.8049863,40.7071919 8.93213281,40.8217344 9.04197329,40.9643366 C9.15181377,41.1069388 9.23010655,41.2591113 9.27685399,41.4208586 C9.32360142,41.5826059 9.33848994,41.7425929 9.32152,41.9008247 C9.30455006,42.0590564 9.25582035,42.210193 9.17532939,42.354239 C9.09483843,42.498285 8.98197314,42.6262434 8.83673014,42.7381179 Z M8.53772145,42.349925 C8.62750803,42.2807661 8.70265338,42.2007955 8.76315974,42.1100107 C8.82366611,42.019226 8.86460704,41.9235267 8.88598375,41.8229101 C8.90736047,41.7222935 8.90653159,41.6187967 8.88349709,41.5124165 C8.86046258,41.4060362 8.81029851,41.3026728 8.73300336,41.2023231 C8.65570821,41.1019734 8.56857374,41.0270867 8.47159735,40.9776608 C8.37462096,40.9282349 8.27476424,40.901015 8.17202421,40.8960003 C8.06928418,40.8909856 7.96630465,40.9061423 7.86308254,40.9414706 C7.75986043,40.976799 7.66335754,41.0290418 7.57357095,41.0982006 C7.48378437,41.1673594 7.40863902,41.24733 7.34813266,41.3381148 C7.28762629,41.4288996 7.24602518,41.5251074 7.22332807,41.626741 C7.20063096,41.7283746 7.20079966,41.83238 7.22383416,41.9387602 C7.24686866,42.0451404 7.29703274,42.1485038 7.37432789,42.2488536 C7.45162304,42.3492033 7.5387575,42.4240899 7.6357339,42.4735159 C7.73271029,42.5229418 7.83322719,42.5496531 7.93728761,42.5536508 C8.04134804,42.5576484 8.14498775,42.5419833 8.24820986,42.5066549 C8.35143196,42.4713266 8.44793486,42.4190838 8.53772145,42.349925 Z M9.56091658,46.4206702 L9.20497851,46.1137369 L11.536366,43.4101222 L11.8847309,43.7105251 L11.6431025,43.9907316 L11.6544623,44.0005274 C11.7952434,43.9546677 11.9484659,43.9492489 12.1141341,43.9842707 C12.2798024,44.0192926 12.4371039,44.1010191 12.5860433,44.2294529 C12.7198362,44.3448256 12.8209568,44.4738381 12.889408,44.6164943 C12.9578592,44.7591505 12.9948372,44.9076764 13.000343,45.0620764 C13.0058488,45.2164765 12.9805363,45.3696073 12.9244046,45.5214737 C12.868273,45.6733401 12.7836105,45.8149054 12.6704147,45.946174 C12.5572188,46.0774426 12.429098,46.1826333 12.2860485,46.2617491 C12.142999,46.340865 11.995342,46.3895959 11.843073,46.4079432 C11.6908041,46.4262905 11.537911,46.4121867 11.3843891,46.3656313 C11.2308672,46.319076 11.0846876,46.2359363 10.9458458,46.1162099 C10.8171016,46.0051909 10.7198773,45.8729361 10.65417,45.7194414 C10.5884628,45.5659468 10.5663292,45.4104149 10.5877686,45.2528411 L10.5764089,45.2430454 L9.56091658,46.4206702 Z M12.3031169,45.6294449 C12.3749527,45.5461398 12.4319888,45.4544763 12.474227,45.3544516 C12.5164652,45.2544269 12.5384621,45.1523549 12.5402184,45.0482325 C12.5419748,44.9441101 12.5208563,44.8422713 12.4768624,44.7427128 C12.4328686,44.6431544 12.361647,44.5509281 12.2631955,44.4660313 C12.1723173,44.3876649 12.0744068,44.3340449 11.9694614,44.3051695 C11.8645159,44.2762942 11.7594164,44.2692925 11.6541599,44.2841643 C11.5489033,44.2990361 11.4480202,44.3330828 11.3515075,44.3863054 C11.2549948,44.439528 11.1697334,44.5090529 11.0957207,44.5948824 C11.021708,44.6807119 10.9654768,44.7752702 10.9270252,44.8785601 C10.8885736,44.9818501 10.8702763,45.0860121 10.8721328,45.1910491 C10.8739893,45.2960861 10.8969142,45.3983823 10.940908,45.4979407 C10.9849019,45.5974991 11.052337,45.6864602 11.1432152,45.7648265 C11.2416667,45.8497234 11.3439078,45.9059776 11.4499417,45.9335907 C11.5559756,45.9612039 11.6603571,45.966486 11.7630893,45.9494374 C11.8658214,45.9323887 11.9635491,45.8956211 12.0562752,45.8391332 C12.1490013,45.7826454 12.231281,45.71275 12.3031169,45.6294449 Z M16.4984607,47.7212297 C16.54059,47.6378785 16.5689557,47.5536041 16.5835586,47.468404 C16.5981615,47.3832039 16.5958581,47.3010575 16.5766484,47.2219623 C16.5574386,47.1428671 16.5205186,47.0682852 16.4658873,46.9982142 C16.4112559,46.9281432 16.3357718,46.8665622 16.2394325,46.8134691 C16.1518514,46.7652027 16.0609339,46.735079 15.9666774,46.723097 C15.8724208,46.7111151 15.7823501,46.7157118 15.6964625,46.7368873 C15.6105749,46.7580628 15.5296775,46.7943568 15.4537678,46.8457704 C15.3778581,46.897184 15.3144605,46.9621521 15.2635731,47.0406767 L16.4984607,47.7212297 Z M16.8227633,48.1168974 L16.7841503,48.1869619 C16.7712793,48.2103169 16.7569488,48.2328671 16.7411584,48.2546132 L15.0946415,47.3472091 C15.0492944,47.4363991 15.0235497,47.5297299 15.0174065,47.6272042 C15.0112633,47.7246786 15.0231583,47.8187714 15.0530919,47.9094856 C15.0830256,48.0001999 15.1292842,48.0837344 15.1918692,48.1600917 C15.2544542,48.2364489 15.3309958,48.2995643 15.4214963,48.3494396 C15.5616261,48.4266658 15.6996712,48.4627804 15.8356356,48.4577845 C15.9716001,48.4527885 16.0929074,48.4225892 16.1995613,48.3671857 L16.3606722,48.7585529 C16.1692921,48.843384 15.9795267,48.8786729 15.7913704,48.8644208 C15.6032141,48.8501687 15.4171786,48.7923637 15.2332582,48.6910043 C15.0756122,48.6041247 14.9441256,48.497408 14.8387944,48.3708508 C14.7334631,48.2442936 14.6587734,48.1070308 14.6147227,47.9590582 C14.5706721,47.8110856 14.5579172,47.6546717 14.5764577,47.4898119 C14.5949981,47.3249521 14.6493162,47.1607823 14.7394135,46.9972976 C14.8279019,46.8367322 14.9365552,46.7034582 15.0653765,46.5974718 C15.1941978,46.4914853 15.3333225,46.4168701 15.4827548,46.373624 C15.6321871,46.3303778 15.7874689,46.3179505 15.9486048,46.3363418 C16.1097408,46.354733 16.2662101,46.4057588 16.4180174,46.4894206 C16.5698247,46.5730823 16.6940876,46.6739151 16.7908099,46.7919218 C16.8875322,46.9099285 16.953211,47.0393709 16.9878482,47.1802527 C17.0224855,47.3211345 17.026557,47.47086 17.0000629,47.6294334 C16.9735687,47.7880069 16.9144695,47.9504932 16.8227633,48.1168974 Z M19.4026154,48.1901561 C19.4217062,48.1297682 19.4447337,48.0513985 19.4716988,47.9550444 C19.4986639,47.8586904 19.5205227,47.7729594 19.537276,47.6978487 L19.961578,47.8319861 C19.9498486,47.8912052 19.9337671,47.9586612 19.9133331,48.0343562 C19.8928991,48.1100512 19.8751466,48.1717351 19.8600749,48.2194097 L19.8743772,48.2239312 C19.9801441,48.1105379 20.107019,48.0326609 20.2550057,47.9902981 C20.4029924,47.9479352 20.5532629,47.9508684 20.7058217,47.9990978 C20.7757445,48.0212029 20.8325328,48.0461476 20.8761883,48.0739325 L20.7259955,48.482671 C20.6674532,48.4466839 20.6016326,48.4171358 20.5285315,48.3940259 C20.420469,48.3598634 20.3204306,48.350087 20.2284131,48.3646964 C20.1363957,48.3793057 20.053617,48.4116927 19.9800745,48.4618584 C19.9065321,48.512024 19.8432329,48.5767884 19.790175,48.6561537 C19.7371171,48.7355189 19.6955171,48.8228748 19.6653738,48.9182241 L19.2900907,50.1053162 L18.8419515,49.9636431 L19.4026154,48.1901561 Z" id="webdesigner-&amp;-front-" fill="#373737" fill-rule="evenodd"></path>
            </g>
        </g>
    </g>
</svg>
